{
  "accessors": [
    {
      "bufferView": 2,
      "componentType": 5126,
      "count": 18584,
      "max": [
        -16.51338005065918,
        9.285184860229492,
        16.456260681152344
      ],
      "min": [
        -49.2121696472168,
        -16.83572006225586,
        0.02310599945485592
      ],
      "type": "VEC3"
    },
    {
      "bufferView": 2,
      "byteOffset": 223008,
      "componentType": 5126,
      "count": 18584,
      "max": [
        1.0,
        1.0,
        1.0
      ],
      "min": [
        -1.0,
        -0.9997109770774841,
        -1.0
      ],
      "type": "VEC3"
    },
    {
      "bufferView": 1,
      "componentType": 5126,
      "count": 18584,
      "max": [
        0.4713110029697418,
        0.9313139915466309
      ],
      "min": [
        0.062011998146772385,
        0.5582929849624634
      ],
      "type": "VEC2"
    },
    {
      "bufferView": 0,
      "componentType": 5125,
      "count": 57717,
      "type": "SCALAR"
    },
    {
      "bufferView": 2,
      "byteOffset": 446016,
      "componentType": 5126,
      "count": 18687,
      "max": [
        -15.88737964630127,
        8.917374610900879,
        3.028531074523926
      ],
      "min": [
        -42.14202117919922,
        -7.149486064910889,
        0.007573000155389309
      ],
      "type": "VEC3"
    },
    {
      "bufferView": 2,
      "byteOffset": 670260,
      "componentType": 5126,
      "count": 18687,
      "max": [
        1.0,
        0.9993056654930115,
        1.0
      ],
      "min": [
        -1.0,
        -0.9993975162506104,
        -1.0
      ],
      "type": "VEC3"
    },
    {
      "bufferView": 1,
      "byteOffset": 148672,
      "componentType": 5126,
      "count": 18687,
      "max": [
        0.4713110029697418,
        0.9313139915466309
      ],
      "min": [
        0.062011998146772385,
        0.5582929849624634
      ],
      "type": "VEC2"
    },
    {
      "bufferView": 0,
      "byteOffset": 230868,
      "componentType": 5125,
      "count": 57603,
      "type": "SCALAR"
    },
    {
      "bufferView": 2,
      "byteOffset": 894504,
      "componentType": 5126,
      "count": 17319,
      "max": [
        -14.085769653320313,
        18.279329299926758,
        28.714679718017578
      ],
      "min": [
        -58.55916976928711,
        -20.319589614868164,
        -1.2719630002975464
      ],
      "type": "VEC3"
    },
    {
      "bufferView": 2,
      "byteOffset": 1102332,
      "componentType": 5126,
      "count": 17319,
      "max": [
        1.0,
        1.0,
        1.0
      ],
      "min": [
        -1.0,
        -0.9997782707214355,
        -1.0
      ],
      "type": "VEC3"
    },
    {
      "bufferView": 1,
      "byteOffset": 298168,
      "componentType": 5126,
      "count": 17319,
      "max": [
        0.9414399862289429,
        1.0
      ],
      "min": [
        0.0,
        0.05773099884390831
      ],
      "type": "VEC2"
    },
    {
      "bufferView": 0,
      "byteOffset": 461280,
      "componentType": 5125,
      "count": 50109,
      "type": "SCALAR"
    },
    {
      "bufferView": 2,
      "byteOffset": 1310160,
      "componentType": 5126,
      "count": 17870,
      "max": [
        -8.14632797241211,
        24.940410614013672,
        28.53697967529297
      ],
      "min": [
        -59.03022003173828,
        -21.01464080810547,
        -0.6986870169639587
      ],
      "type": "VEC3"
    },
    {
      "bufferView": 2,
      "byteOffset": 1524600,
      "componentType": 5126,
      "count": 17870,
      "max": [
        1.0,
        1.0,
        1.0
      ],
      "min": [
        -0.9999934434890747,
        -0.9998759031295776,
        -1.0
      ],
      "type": "VEC3"
    },
    {
      "bufferView": 1,
      "byteOffset": 436720,
      "componentType": 5126,
      "count": 17870,
      "max": [
        0.9414399862289429,
        1.0
      ],
      "min": [
        0.0,
        0.05773099884390831
      ],
      "type": "VEC2"
    },
    {
      "bufferView": 0,
      "byteOffset": 661716,
      "componentType": 5125,
      "count": 53199,
      "type": "SCALAR"
    },
    {
      "bufferView": 2,
      "byteOffset": 1739040,
      "componentType": 5126,
      "count": 17819,
      "max": [
        -14.380760192871094,
        17.253000259399414,
        27.29591941833496
      ],
      "min": [
        -57.33203887939453,
        -14.947919845581055,
        0.028743000701069832
      ],
      "type": "VEC3"
    },
    {
      "bufferView": 2,
      "byteOffset": 1952868,
      "componentType": 5126,
      "count": 17819,
      "max": [
        0.9999220371246338,
        1.0,
        1.0
      ],
      "min": [
        -0.9999966621398926,
        -0.9993153214454651,
        -1.0
      ],
      "type": "VEC3"
    },
    {
      "bufferView": 1,
      "byteOffset": 579680,
      "componentType": 5126,
      "count": 17819,
      "max": [
        0.5052419900894165,
        1.0
      ],
      "min": [
        0.0,
        0.5561000108718872
      ],
      "type": "VEC2"
    },
    {
      "bufferView": 0,
      "byteOffset": 874512,
      "componentType": 5125,
      "count": 53757,
      "type": "SCALAR"
    },
    {
      "bufferView": 2,
      "byteOffset": 2166696,
      "componentType": 5126,
      "count": 18677,
      "max": [
        -16.88983917236328,
        9.720251083374023,
        19.507280349731445
      ],
      "min": [
        -49.742950439453125,
        -7.983928203582764,
        0.007573000155389309
      ],
      "type": "VEC3"
    },
    {
      "bufferView": 2,
      "byteOffset": 2390820,
      "componentType": 5126,
      "count": 18677,
      "max": [
        1.0,
        0.9997309446334839,
        1.0
      ],
      "min": [
        -1.0,
        -0.9993153214454651,
        -1.0
      ],
      "type": "VEC3"
    },
    {
      "bufferView": 1,
      "byteOffset": 722232,
      "componentType": 5126,
      "count": 18677,
      "max": [
        0.4713110029697418,
        0.9313139915466309
      ],
      "min": [
        0.062011998146772385,
        0.5582929849624634
      ],
      "type": "VEC2"
    },
    {
      "bufferView": 0,
      "byteOffset": 1089540,
      "componentType": 5125,
      "count": 57414,
      "type": "SCALAR"
    },
    {
      "bufferView": 2,
      "byteOffset": 2614944,
      "componentType": 5126,
      "count": 5854,
      "max": [
        -7.777629852294922,
        25.684389114379883,
        15.188300132751465
      ],
      "min": [
        -61.462589263916016,
        -17.596370697021484,
        0.028743000701069832
      ],
      "type": "VEC3"
    },
    {
      "bufferView": 2,
      "byteOffset": 2685192,
      "componentType": 5126,
      "count": 5854,
      "max": [
        1.0,
        0.999731183052063,
        1.0
      ],
      "min": [
        -0.9995718598365784,
        -0.9993155002593994,
        -1.0
      ],
      "type": "VEC3"
    },
    {
      "bufferView": 1,
      "byteOffset": 871648,
      "componentType": 5126,
      "count": 5854,
      "max": [
        0.48394298553466797,
        1.0
      ],
      "min": [
        0.0,
        0.5228070020675659
      ],
      "type": "VEC2"
    },
    {
      "bufferView": 0,
      "byteOffset": 1319196,
      "componentType": 5125,
      "count": 18198,
      "type": "SCALAR"
    }
  ],
  "asset": {
    "extras": {
      "author": "Digital screen official (https://sketchfab.com/ck212575)",
      "license": "CC-BY-4.0 (http://creativecommons.org/licenses/by/4.0/)",
      "source": "https://sketchfab.com/3d-models/low-poly-environments-01-7c222acff4ec452c8cc45be764650112",
      "title": "low poly environments 01"
    },
    "generator": "Sketchfab-16.3.0",
    "version": "2.0"
  },
  "bufferViews": [
    {
      "buffer": 0,
      "byteLength": 1391988,
      "name": "floatBufferViews",
      "target": 34963
    },
    {
      "buffer": 0,
      "byteLength": 918480,
      "byteOffset": 1391988,
      "byteStride": 8,
      "name": "floatBufferViews",
      "target": 34962
    },
    {
      "buffer": 0,
      "byteLength": 2755440,
      "byteOffset": 2310468,
      "byteStride": 12,
      "name": "floatBufferViews",
      "target": 34962
    }
  ],
  "buffers": [
    {
      "byteLength": 5065908,
      "uri": "scene.bin"
    }
  ],
  "extensionsUsed": [
    "KHR_materials_specular"
  ],
  "images": [
    {
      "uri": "textures/Material_baseColor.jpeg"
    }
  ],
  "materials": [
    {
      "doubleSided": true,
      "extensions": {
        "KHR_materials_specular": {
          "specularColorFactor": [
            1.0,
            1.0,
            1.0
          ],
          "specularFactor": 1.0
        }
      },
      "name": "Material",
      "pbrMetallicRoughness": {
        "baseColorTexture": {
          "index": 0
        },
        "metallicFactor": 0.0
      }
    }
  ],
  "meshes": [
    {
      "name": "Object_0",
      "primitives": [
        {
          "attributes": {
            "NORMAL": 1,
            "POSITION": 0,
            "TEXCOORD_0": 2
          },
          "indices": 3,
          "material": 0,
          "mode": 4
        }
      ]
    },
    {
      "name": "Object_1",
      "primitives": [
        {
          "attributes": {
            "NORMAL": 5,
            "POSITION": 4,
            "TEXCOORD_0": 6
          },
          "indices": 7,
          "material": 0,
          "mode": 4
        }
      ]
    },
    {
      "name": "Object_2",
      "primitives": [
        {
          "attributes": {
            "NORMAL": 9,
            "POSITION": 8,
            "TEXCOORD_0": 10
          },
          "indices": 11,
          "material": 0,
          "mode": 4
        }
      ]
    },
    {
      "name": "Object_3",
      "primitives": [
        {
          "attributes": {
            "NORMAL": 13,
            "POSITION": 12,
            "TEXCOORD_0": 14
          },
          "indices": 15,
          "material": 0,
          "mode": 4
        }
      ]
    },
    {
      "name": "Object_4",
      "primitives": [
        {
          "attributes": {
            "NORMAL": 17,
            "POSITION": 16,
            "TEXCOORD_0": 18
          },
          "indices": 19,
          "material": 0,
          "mode": 4
        }
      ]
    },
    {
      "name": "Object_5",
      "primitives": [
        {
          "attributes": {
            "NORMAL": 21,
            "POSITION": 20,
            "TEXCOORD_0": 22
          },
          "indices": 23,
          "material": 0,
          "mode": 4
        }
      ]
    },
    {
      "name": "Object_6",
      "primitives": [
        {
          "attributes": {
            "NORMAL": 25,
            "POSITION": 24,
            "TEXCOORD_0": 26
          },
          "indices": 27,
          "material": 0,
          "mode": 4
        }
      ]
    }
  ],
  "nodes": [
    {
      "children": [
        1
      ],
      "matrix": [
        1.0,
        0.0,
        0.0,
        0.0,
        0.0,
        2.220446049250313e-16,
        -1.0,
        0.0,
        0.0,
        1.0,
        2.220446049250313e-16,
        0.0,
        0.0,
        0.0,
        0.0,
        1.0
      ],
      "name": "Sketchfab_model"
    },
    {
      "children": [
        2,
        3,
        4,
        5,
        6,
        7,
        8
      ],
      "name": "lown poly environments 01.obj.cleaner.materialmerger.gles"
    },
    {
      "mesh": 0,
      "name": "Object_2"
    },
    {
      "mesh": 1,
      "name": "Object_3"
    },
    {
      "mesh": 2,
      "name": "Object_4"
    },
    {
      "mesh": 3,
      "name": "Object_5"
    },
    {
      "mesh": 4,
      "name": "Object_6"
    },
    {
      "mesh": 5,
      "name": "Object_7"
    },
    {
      "mesh": 6,
      "name": "Object_8"
    }
  ],
  "samplers": [
    {
      "magFilter": 9729,
      "minFilter": 9987,
      "wrapS": 10497,
      "wrapT": 10497
    }
  ],
  "scene": 0,
  "scenes": [
    {
      "name": "Sketchfab_Scene",
      "nodes": [
        0
      ]
    }
  ],
  "textures": [
    {
      "sampler": 0,
      "source": 0
    }
  ]
}
